<?xml version="1.0" encoding="UTF-8"?>
<!-- Apple Touch Icon - 180x180 -->
<svg width="180" height="180" viewBox="0 0 180 180" xmlns="http://www.w3.org/2000/svg">
    <defs>
        <linearGradient id="goldGradient" x1="0%" y1="0%" x2="100%" y2="100%">
            <stop offset="0%" style="stop-color:#FFD700;stop-opacity:1" />
            <stop offset="50%" style="stop-color:#FFA500;stop-opacity:1" />
            <stop offset="100%" style="stop-color:#FF8C00;stop-opacity:1" />
        </linearGradient>
    </defs>
    
    <!-- Rounded square background -->
    <rect x="10" y="10" width="160" height="160" rx="30" fill="#1a1a2e" stroke="#FFD700" stroke-width="4"/>
    
    <!-- Queen silhouette - larger -->
    <path d="M40 140 L140 140 L135 120 L130 125 L120 115 L110 120 L90 110 L70 120 L60 115 L50 125 L45 120 Z" 
          fill="url(#goldGradient)" stroke="#B8860B" stroke-width="2"/>
    
    <!-- Crown base -->
    <path d="M45 120 L135 120 L130 95 L50 95 Z" 
          fill="url(#goldGradient)" stroke="#B8860B" stroke-width="2"/>
    
    <!-- Crown points -->
    <circle cx="60" cy="85" r="8" fill="url(#goldGradient)" stroke="#B8860B" stroke-width="2"/>
    <circle cx="75" cy="75" r="8" fill="url(#goldGradient)" stroke="#B8860B" stroke-width="2"/>
    <circle cx="90" cy="65" r="10" fill="url(#goldGradient)" stroke="#B8860B" stroke-width="2"/>
    <circle cx="105" cy="75" r="8" fill="url(#goldGradient)" stroke="#B8860B" stroke-width="2"/>
    <circle cx="120" cy="85" r="8" fill="url(#goldGradient)" stroke="#B8860B" stroke-width="2"/>
    
    <!-- Base -->
    <rect x="35" y="140" width="110" height="15" rx="5" 
          fill="url(#goldGradient)" stroke="#B8860B" stroke-width="2"/>
</svg>