<svg width="512" height="512" viewBox="0 0 512 512" fill="none" xmlns="http://www.w3.org/2000/svg">
  <defs>
    <linearGradient id="g1" x1="80" y1="32" x2="420" y2="480" gradientUnits="userSpaceOnUse">
      <stop offset="0%" stop-color="#8B5CF6"/>
      <stop offset="40%" stop-color="#6366F1"/>
      <stop offset="75%" stop-color="#0EA5E9"/>
      <stop offset="100%" stop-color="#14B8A6"/>
    </linearGradient>
    <linearGradient id="g2" x1="156" y1="120" x2="356" y2="420" gradientUnits="userSpaceOnUse">
      <stop offset="0%" stop-color="#ffffff" stop-opacity="0.9"/>
      <stop offset="90%" stop-color="#ffffff" stop-opacity="0.05"/>
    </linearGradient>
    <filter id="shadow" x="0" y="0" width="512" height="512" filterUnits="userSpaceOnUse" color-interpolation-filters="sRGB">
      <feDropShadow dx="0" dy="8" stdDeviation="20" flood-color="#000000" flood-opacity="0.35"/>
    </filter>
    <clipPath id="rounded">
      <rect x="48" y="48" width="416" height="416" rx="112" ry="112" />
    </clipPath>
  </defs>

  <!-- Background rounded gradient plate -->
  <g filter="url(#shadow)">
    <rect x="48" y="48" width="416" height="416" rx="112" ry="112" fill="url(#g1)" />
    <rect x="48" y="48" width="416" height="416" rx="112" ry="112" fill="#FFFFFF" fill-opacity="0.04" />
  </g>

  <g clip-path="url(#rounded)">
    <!-- Subtle internal grid (4x4) -->
    <g opacity="0.18">
      <rect x="48" y="48" width="208" height="208" fill="#000" fill-opacity="0.22"/>
      <rect x="256" y="256" width="208" height="208" fill="#000" fill-opacity="0.22"/>
    </g>

    <!-- Stylized Knight Silhouette -->
    <path d="M256 376c-28 0-44-4-60-14-20-12-32-33-32-58 0-18 6-34 18-48l8-9-14-30c-4-8-6-17-6-26 0-41 37-75 82-75 25 0 48 9 64 25 12 12 18 25 18 38 0 9-4 18-10 24l-18 18 22 10c16 7 26 23 26 41 0 18-9 34-24 44-18 13-44 20-74 20Zm-70-72c0 30 28 48 70 48 52 0 86-20 86-48 0-11-6-21-16-26l-44-20 34-34c4-4 6-9 6-14 0-7-4-15-12-23-12-12-30-19-50-19-36 0-66 25-66 55 0 6 1 12 4 18l18 38-20 22c-6 7-10 16-10 23Z" fill="#fff" fill-opacity="0.92"/>
    <!-- Inner light sheen -->
    <path d="M144 180c10-52 56-92 112-92 44 0 84 24 104 60-8 0-16-2-24-2-80 0-132 36-156 110-8 2-16 2-24 2-4-24-4-50-12-78Z" fill="url(#g2)"/>
  </g>

  <!-- Fine outline -->
  <rect x="48.5" y="48.5" width="415" height="415" rx="111.5" ry="111.5" stroke="#FFFFFF" stroke-opacity="0.18" />
</svg>
